<svg id="Capa_1" enable-background="new 0 0 513 513" height="512" viewBox="0 0 513 513" width="512" xmlns="http://www.w3.org/2000/svg"><g><g><g><path d="m505 168.323c0-35.417-28.712-64.129-64.129-64.129-7.816 0-15.272 1.468-22.199 4.028-38.121-41.873-93.068-68.157-154.156-68.157-63.697 0-120.682 28.606-158.912 73.635-9.753-5.991-21.19-9.506-33.475-9.506-35.417 0-64.129 28.711-64.129 64.129 0 30.166 20.856 55.397 48.915 62.238-.504 5.913-.819 11.88-.819 17.924 0 113.345 90.495 205.491 203.167 208.287 15.27 10.199 33.608 16.165 53.349 16.165 44.322 0 81.542-30.017 92.695-70.801 41.559-38.101 67.628-92.826 67.628-153.651 0-8.065-.505-16.007-1.396-23.833 19.934-10.878 33.461-32.022 33.461-56.329z" fill="#00d2dc"/></g><g><g><path d="m292.816 447.053c-94.001-12.382-168.816-88.946-179.302-183.178-3.698-33.236.615-64.991 11.05-93.829 7.487-20.691.152-44.389-18.501-56.061-.154-.097-.309-.192-.464-.288-4.818-2.958-10.051-5.301-15.59-6.927-.231-.067-.469-.115-.701-.18-2.302-.647-4.667-1.137-7.066-1.524-.633-.1-1.263-.208-1.901-.29-2.692-.35-5.423-.584-8.213-.584-35.416.002-64.128 28.713-64.128 64.131 0 30.166 20.856 55.397 48.915 62.238-.504 5.913-.819 11.88-.819 17.924 0 113.345 90.495 205.491 203.167 208.287 15.27 10.199 33.608 16.165 53.349 16.165 29.711 0 56.184-13.529 73.799-34.707-28.907 9.612-60.578 13.172-93.595 8.823z" fill="#0096d2"/></g></g><g><path d="m380.75 176.339c-15.425 0-29.488 6.975-40.129 18.437-8.325 8.968-20.309 13.627-32.545 13.627h-2.867c-12.047 0-23.275-5.102-32.173-13.223-12.94-11.811-30.193-18.974-49.125-18.839-38.226.272-70.532 31.881-71.591 70.093-1.131 40.781 31.591 74.195 72.117 74.195 2.487 0 91.13-.372 139.147-.574 19.763-.083 39.057-5.718 55.772-16.261 13.153-13.235 21.516-33.1 21.516-55.31-.001-39.845-26.918-72.145-60.122-72.145z" fill="#beebeb"/></g><g><circle cx="312.613" cy="376.742" fill="#beebeb" r="96.194"/></g><g><path d="m336.661 456.903c-53.126 0-96.194-43.068-96.194-96.194 0-28.2 12.21-53.485 31.542-71.08-32.806 15.32-55.59 48.515-55.59 87.112 0 53.126 43.067 96.194 96.194 96.194 24.927 0 47.564-9.562 64.653-25.115-12.35 5.768-26.075 9.083-40.605 9.083z" fill="#00d2dc"/></g><g><circle cx="72.129" cy="168.323" fill="#00d2dc" r="32.065"/></g><g><path d="m405.586 373.162c-25.696 14.355-57.994 23.28-93.234 24.111-35.986.848-69.306-6.879-95.932-20.532l2.763 22.109c26.669 24.26 59.875 38.314 95.578 37.472 34.962-.824 66.86-15.805 92.11-40.361z" fill="#fff"/></g></g><g fill="#283c64"><path d="m513 168.323c0-39.772-32.357-72.129-72.129-72.129-6.77 0-13.438.943-19.879 2.788-1.135-1.186-2.28-2.365-3.444-3.529-40.876-40.876-95.224-63.388-153.032-63.388-61.374 0-119.67 26.004-160.716 71.495-9.751-4.771-20.571-7.366-31.671-7.366-39.772-.001-72.129 32.356-72.129 72.129 0 31.473 20.271 58.286 48.436 68.112-.22 4.009-.339 8.042-.339 12.049 0 56.783 21.829 110.44 61.466 151.085 39.161 40.157 91.431 63.257 147.348 65.189 16.122 10.239 35.231 16.178 55.702 16.178 47.158 0 87.092-31.494 99.891-74.552 21.23-19.901 37.983-43.407 49.787-69.896 12.371-27.762 18.644-57.371 18.644-88.004 0-6.583-.307-13.117-.884-19.595 20.671-13.369 32.949-35.852 32.949-60.566zm-200.387 296.613c-31.82 0-59.755-16.94-75.268-42.274 22.876 14.28 48.106 21.698 74.315 21.698 1.094 0 2.191-.013 3.289-.039 26.427-.623 51.626-8.747 74.161-23.723-15.237 26.474-43.82 44.338-76.497 44.338zm0-176.388c45.318 0 82.756 34.359 87.646 78.394-25.38 13.844-55.792 21.571-88.096 22.333-31.771.749-61.926-5.28-87.604-17.45 2.559-46.351 41.074-83.277 88.054-83.277zm-87.241 101.138c24.586 10.282 52.406 15.652 81.531 15.652 1.872 0 3.755-.022 5.638-.067 31.744-.748 61.896-7.793 87.891-20.425-.219 2.394-.532 4.761-.939 7.097-24.496 23.076-53.806 35.649-84.92 36.383-31.925.742-62.428-10.982-88.379-33.943-.317-1.551-.589-3.118-.822-4.697zm222.305-59.71c-7.935 17.808-18.297 34.155-30.896 48.836.014-.689.026-1.378.026-2.07 0-57.453-46.741-104.193-104.194-104.193-33.149 0-62.73 15.562-81.827 39.762-2.105.208-4.231.319-6.35.319-17.471 0-33.802-6.898-45.986-19.425-12.179-12.521-18.619-29.052-18.134-46.548.454-16.394 7.364-31.942 19.457-43.779 12.092-11.836 27.787-18.419 44.194-18.536.155-.001.309-.002.464-.002 16.037 0 31.367 5.938 43.211 16.75 10.82 9.876 24.161 15.315 37.567 15.315h2.866c14.861 0 28.86-5.899 38.409-16.184 9.506-10.241 21.675-15.88 34.266-15.88 28.74 0 52.121 28.775 52.121 64.145 0 19.295-6.995 37.399-19.191 49.67-3.114 3.134-3.099 8.199.035 11.314 3.135 3.114 8.2 3.098 11.314-.035 15.152-15.246 23.842-37.461 23.842-60.949 0-44.192-30.559-80.145-68.121-80.145-17.09 0-33.424 7.456-45.992 20.995-6.531 7.035-16.256 11.07-26.683 11.07h-2.866c-9.405 0-18.916-3.954-26.781-11.132-14.945-13.642-34.316-21.047-54.576-20.93-42.672.304-78.35 35.238-79.531 77.872-.605 21.852 7.441 42.502 22.658 58.147 14.25 14.65 33.042 23.137 53.292 24.162-7.564 14.427-11.852 30.831-11.852 48.22 0 26.963 10.295 51.566 27.16 70.086-43.429-6.258-83.459-26.535-114.562-58.43-36.706-37.64-56.921-87.329-56.921-139.915 0-2.816.062-5.645.179-8.468 2.581.281 5.199.435 7.854.435 4.888 0 9.775-.493 14.528-1.465 4.329-.886 7.12-5.113 6.234-9.441-.885-4.328-5.11-7.118-9.441-6.234-3.699.757-7.508 1.141-11.321 1.141-30.95 0-56.129-25.179-56.129-56.129s25.179-56.129 56.129-56.129c17.92 0 34.914 8.672 45.458 23.197 2.596 3.576 7.599 4.369 11.174 1.774 3.575-2.596 4.37-7.598 1.774-11.174-3.755-5.173-8.15-9.766-13.029-13.706 37.906-40.894 91.078-64.22 147.01-64.22 110.512 0 200.419 89.908 200.419 200.419.001 28.372-5.806 55.79-17.258 81.49zm29.992-119.249c-6.281-35.906-21.516-69.454-44.583-97.988 2.567-.356 5.165-.546 7.785-.546 30.95 0 56.129 25.18 56.129 56.129 0 16.562-7.089 31.836-19.331 42.405z"/><path d="m72.129 128.258c-22.092 0-40.064 17.973-40.064 40.064s17.973 40.064 40.064 40.064 40.064-17.973 40.064-40.064-17.972-40.064-40.064-40.064zm0 64.129c-13.269 0-24.064-10.795-24.064-24.064s10.795-24.064 24.064-24.064 24.064 10.795 24.064 24.064-10.795 24.064-24.064 24.064z"/><path d="m346.393 327.319c3.694-2.423 4.726-7.382 2.303-11.077s-7.382-4.725-11.077-2.303c-6.881 4.513-13.312 6.706-19.661 6.706s-12.78-2.193-19.661-6.706c-3.694-2.421-8.653-1.391-11.077 2.303-2.423 3.695-1.392 8.654 2.303 11.077 9.437 6.188 19.004 9.326 28.436 9.326s18.997-3.138 28.434-9.326z"/><path d="m223.935 231.466c-13.304 0-25.916 7.082-34.6 19.43-2.542 3.614-1.673 8.604 1.941 11.146s8.604 1.673 11.146-1.941c5.73-8.147 13.371-12.634 21.513-12.634s15.783 4.487 21.512 12.634c1.558 2.215 4.035 3.398 6.551 3.398 1.59 0 3.196-.473 4.595-1.457 3.614-2.542 4.483-7.532 1.942-11.146-8.684-12.348-21.296-19.43-34.6-19.43z"/><path d="m416.507 251.124c-8.158-12.493-20.096-19.658-32.751-19.658s-24.592 7.165-32.75 19.658c-2.416 3.699-1.375 8.656 2.324 11.072 3.698 2.416 8.657 1.375 11.072-2.324 5.225-8 12.098-12.406 19.354-12.406s14.13 4.406 19.354 12.406c1.535 2.35 4.094 3.627 6.706 3.627 1.5 0 3.018-.421 4.367-1.303 3.699-2.416 4.74-7.373 2.324-11.072z"/></g></g></svg>